<?xml version="1.0" encoding="UTF-8"?>
<svg width="700pt" height="700pt" version="1.1" viewBox="0 0 700 700" xmlns="http://www.w3.org/2000/svg" xmlns:xlink="http://www.w3.org/1999/xlink">
 <defs>
  <symbol id="l" overflow="visible">
   <path d="m29.312-1.75c-1.5117 0.78125-3.0898 1.3711-4.7344 1.7656-1.6367 0.40625-3.3398 0.60938-5.1094 0.60938-5.3125 0-9.5273-1.4844-12.641-4.4531-3.1055-2.9688-4.6562-7-4.6562-12.094s1.5508-9.125 4.6562-12.094c3.1133-2.9688 7.3281-4.4531 12.641-4.4531 1.7695 0 3.4727 0.19922 5.1094 0.59375 1.6445 0.39844 3.2227 0.99219 4.7344 1.7812v6.5938c-1.5312-1.0391-3.0391-1.8008-4.5156-2.2812-1.4805-0.48828-3.0391-0.73438-4.6719-0.73438-2.9375 0-5.2461 0.94531-6.9219 2.8281-1.6797 1.875-2.5156 4.4648-2.5156 7.7656 0 3.293 0.83594 5.8828 2.5156 7.7656 1.6758 1.875 3.9844 2.8125 6.9219 2.8125 1.6328 0 3.1914-0.23828 4.6719-0.71875 1.4766-0.48828 2.9844-1.2539 4.5156-2.2969z"/>
  </symbol>
  <symbol id="d" overflow="visible">
   <path d="m21.453-17.406c-0.67969-0.3125-1.3516-0.53906-2.0156-0.6875-0.65625-0.15625-1.3203-0.23438-1.9844-0.23438-1.9688 0-3.4844 0.63281-4.5469 1.8906-1.0547 1.2617-1.5781 3.0703-1.5781 5.4219v11.016h-7.6562v-23.922h7.6562v3.9219c0.97656-1.5625 2.1016-2.7031 3.375-3.4219 1.2812-0.71875 2.8125-1.0781 4.5938-1.0781 0.25 0 0.52344 0.011719 0.82812 0.03125 0.30078 0.023438 0.73438 0.070312 1.2969 0.14062z"/>
  </symbol>
  <symbol id="b" overflow="visible">
   <path d="m27.562-12.031v2.1875h-17.891c0.1875 1.793 0.83203 3.1367 1.9375 4.0312 1.1133 0.89844 2.6719 1.3438 4.6719 1.3438 1.6016 0 3.25-0.23438 4.9375-0.70312 1.6875-0.47656 3.4219-1.2031 5.2031-2.1719v5.8906c-1.8047 0.6875-3.6094 1.2031-5.4219 1.5469-1.8125 0.35156-3.6211 0.53125-5.4219 0.53125-4.3359 0-7.7031-1.0977-10.109-3.2969-2.3984-2.207-3.5938-5.2969-3.5938-9.2656 0-3.9062 1.1758-6.9727 3.5312-9.2031 2.3633-2.2383 5.6094-3.3594 9.7344-3.3594 3.7578 0 6.7695 1.1367 9.0312 3.4062 2.2578 2.2617 3.3906 5.2812 3.3906 9.0625zm-7.8594-2.5312c0-1.457-0.42969-2.6289-1.2812-3.5156-0.84375-0.89453-1.9492-1.3438-3.3125-1.3438-1.4922 0-2.6992 0.41797-3.625 1.25-0.91797 0.83594-1.4922 2.0391-1.7188 3.6094z"/>
  </symbol>
  <symbol id="c" overflow="visible">
   <path d="m14.391-10.766c-1.5938 0-2.793 0.27344-3.5938 0.8125-0.80469 0.54297-1.2031 1.3398-1.2031 2.3906 0 0.96875 0.32031 1.7305 0.96875 2.2812 0.64453 0.54297 1.5469 0.8125 2.7031 0.8125 1.4375 0 2.6445-0.51562 3.625-1.5469 0.98828-1.0312 1.4844-2.3203 1.4844-3.875v-0.875zm11.688-2.8906v13.656h-7.7031v-3.5469c-1.0312 1.4492-2.1875 2.5078-3.4688 3.1719s-2.8398 1-4.6719 1c-2.4805 0-4.4961-0.72266-6.0469-2.1719-1.543-1.4453-2.3125-3.3203-2.3125-5.625 0-2.8125 0.96094-4.8672 2.8906-6.1719 1.9375-1.3125 4.9688-1.9688 9.0938-1.9688h4.5156v-0.60938c0-1.207-0.48047-2.0938-1.4375-2.6562-0.94922-0.5625-2.4375-0.84375-4.4688-0.84375-1.6367 0-3.1562 0.16797-4.5625 0.5-1.4062 0.32422-2.7188 0.8125-3.9375 1.4688v-5.8281c1.6445-0.40625 3.2891-0.70703 4.9375-0.90625 1.6562-0.20703 3.3047-0.3125 4.9531-0.3125 4.3203 0 7.4375 0.85547 9.3438 2.5625 1.9141 1.6992 2.875 4.4609 2.875 8.2812z"/>
  </symbol>
  <symbol id="i" overflow="visible">
   <path d="m12.031-30.719v6.7969h7.875v5.4688h-7.875v10.141c0 1.1172 0.21875 1.8711 0.65625 2.2656 0.4375 0.38672 1.3125 0.57812 2.625 0.57812h3.9375v5.4688h-6.5625c-3.0234 0-5.1641-0.62891-6.4219-1.8906-1.2617-1.2578-1.8906-3.3984-1.8906-6.4219v-10.141h-3.7969v-5.4688h3.7969v-6.7969z"/>
  </symbol>
  <symbol id="a" overflow="visible">
   <path d="m19.953-20.422v-12.812h7.6875v33.234h-7.6875v-3.4531c-1.0547 1.4062-2.2148 2.4375-3.4844 3.0938-1.2734 0.65625-2.7422 0.98438-4.4062 0.98438-2.9492 0-5.3711-1.1719-7.2656-3.5156-1.8867-2.3438-2.8281-5.3594-2.8281-9.0469s0.94141-6.7031 2.8281-9.0469c1.8945-2.3438 4.3164-3.5156 7.2656-3.5156 1.6562 0 3.1172 0.33594 4.3906 1 1.2812 0.65625 2.4453 1.6836 3.5 3.0781zm-5.0469 15.484c1.6445 0 2.8945-0.59766 3.75-1.7969 0.86328-1.1953 1.2969-2.9297 1.2969-5.2031 0-2.2812-0.43359-4.0195-1.2969-5.2188-0.85547-1.1953-2.1055-1.7969-3.75-1.7969-1.625 0-2.8711 0.60156-3.7344 1.7969-0.85547 1.1992-1.2812 2.9375-1.2812 5.2188 0 2.2734 0.42578 4.0078 1.2812 5.2031 0.86328 1.1992 2.1094 1.7969 3.7344 1.7969z"/>
  </symbol>
  <symbol id="h" overflow="visible">
   <path d="m16.406-4.9375c1.6328 0 2.8828-0.59766 3.75-1.7969 0.86328-1.1953 1.2969-2.9297 1.2969-5.2031 0-2.2812-0.43359-4.0195-1.2969-5.2188-0.86719-1.1953-2.1172-1.7969-3.75-1.7969-1.6367 0-2.8906 0.60547-3.7656 1.8125-0.875 1.1992-1.3125 2.9336-1.3125 5.2031 0 2.2617 0.4375 3.9961 1.3125 5.2031 0.875 1.1992 2.1289 1.7969 3.7656 1.7969zm-5.0781-15.484c1.0508-1.3945 2.2188-2.4219 3.5-3.0781 1.2812-0.66406 2.7539-1 4.4219-1 2.9453 0 5.3672 1.1719 7.2656 3.5156 1.8945 2.3438 2.8438 5.3594 2.8438 9.0469s-0.94922 6.7031-2.8438 9.0469c-1.8984 2.3438-4.3203 3.5156-7.2656 3.5156-1.668 0-3.1406-0.33594-4.4219-1s-2.4492-1.6914-3.5-3.0781v3.4531h-7.6562v-33.234h7.6562z"/>
  </symbol>
  <symbol id="g" overflow="visible">
   <path d="m0.53125-23.922h7.6562l6.4219 16.234 5.4688-16.234h7.6562l-10.062 26.188c-1.0117 2.6641-2.1953 4.5234-3.5469 5.5781-1.3438 1.0625-3.1211 1.5938-5.3281 1.5938h-4.4219v-5.0156h2.3906c1.3008 0 2.2422-0.21094 2.8281-0.625 0.59375-0.40625 1.0547-1.1484 1.3906-2.2188l0.20312-0.65625z"/>
  </symbol>
  <symbol id="f" overflow="visible">
   <path d="m23.375-5.8125h-12.859l-2.0312 5.8125h-8.2656l11.812-31.891h9.7969l11.812 31.891h-8.2656zm-10.812-5.9219h8.7344l-4.3594-12.688z"/>
  </symbol>
  <symbol id="e" overflow="visible">
   <path d="m27.734-14.562v14.562h-7.7031v-11.156c0-2.0625-0.046875-3.4844-0.14062-4.2656-0.085937-0.78125-0.24219-1.3594-0.46875-1.7344-0.30469-0.5-0.71094-0.88281-1.2188-1.1562-0.51172-0.28125-1.0938-0.42188-1.75-0.42188-1.5938 0-2.8516 0.61719-3.7656 1.8438-0.90625 1.2305-1.3594 2.9375-1.3594 5.125v11.766h-7.6562v-23.922h7.6562v3.5c1.1445-1.3945 2.3633-2.4219 3.6562-3.0781 1.3008-0.66406 2.7383-1 4.3125-1 2.7578 0 4.8516 0.85156 6.2812 2.5469 1.4375 1.6875 2.1562 4.1523 2.1562 7.3906z"/>
  </symbol>
  <symbol id="k" overflow="visible">
   <path d="m16.797-19.547c1.2891 0 2.2695-0.28125 2.9375-0.84375 0.67578-0.57031 1.0156-1.4141 1.0156-2.5312 0-1.0938-0.33984-1.9258-1.0156-2.5-0.66797-0.58203-1.6484-0.875-2.9375-0.875h-4.5625v6.75zm0.26562 13.953c1.6562 0 2.8984-0.34766 3.7344-1.0469 0.83203-0.69531 1.25-1.7539 1.25-3.1719 0-1.375-0.41797-2.4062-1.25-3.0938-0.82422-0.69531-2.0703-1.0469-3.7344-1.0469h-4.8281v8.3594zm7.6562-11.469c1.7578 0.51172 3.125 1.4609 4.0938 2.8438 0.96875 1.375 1.4531 3.0703 1.4531 5.0781 0 3.0742-1.043 5.3672-3.125 6.875-2.0742 1.5117-5.2305 2.2656-9.4688 2.2656h-13.656v-31.891h12.344c4.4258 0 7.6328 0.67188 9.625 2.0156 1.9883 1.3359 2.9844 3.4766 2.9844 6.4219 0 1.5547-0.36719 2.875-1.0938 3.9688-0.73047 1.0859-1.7812 1.8906-3.1562 2.4219z"/>
  </symbol>
  <symbol id="j" overflow="visible">
   <path d="m3.4219-9.3125v-14.609h7.6875v2.3906c0 1.293-0.011719 2.918-0.03125 4.875-0.011719 1.9609-0.015625 3.2656-0.015625 3.9219 0 1.9297 0.046875 3.3125 0.14062 4.1562 0.10156 0.84375 0.28125 1.4609 0.53125 1.8438 0.3125 0.5 0.71875 0.88672 1.2188 1.1562 0.50781 0.27344 1.0938 0.40625 1.75 0.40625 1.5938 0 2.8438-0.60938 3.75-1.8281 0.91406-1.2266 1.375-2.9297 1.375-5.1094v-11.812h7.6406v23.922h-7.6406v-3.4531c-1.1562 1.3867-2.3828 2.4141-3.6719 3.0781-1.2812 0.66406-2.6992 1-4.25 1-2.7734 0-4.8828-0.84766-6.3281-2.5469-1.4375-1.6953-2.1562-4.1602-2.1562-7.3906z"/>
  </symbol>
 </defs>
 <g>
  <path d="m421.87 233.56 2.8945-2.8945-18.594-18.594c-0.054688-0.054688-0.085938-0.11719-0.13672-0.16797l-4.5664-4.5664c-3.2656-3.2656-8.5898-3.2656-11.859 0.003906s-3.2656 8.5859 0 11.852l25.578 25.578c1.2969-4.0938 3.4453-7.9727 6.6836-11.211z"/>
  <path d="m447.27 208.16-18.594-18.594c-3.2734-3.2734-8.6016-3.2773-11.875-0.003906-3.2461 3.2461-3.2578 8.5078-0.0625 11.789l18.672 18.672z"/>
  <path d="m424.91 287.7c3.2734-3.2734 3.2734-8.6016-0.003906-11.875l-38.301-38.301c-3.2734-3.2734-8.5977-3.2734-11.875 0-3.2734 3.2734-3.2812 8.6055-0.003906 11.879l38.301 38.301c3.2773 3.2734 8.6094 3.2695 11.883-0.003907z"/>
  <path d="m360.02 267.81c-3.2734 3.2734-3.2734 8.6016 0.003906 11.875l30.516 30.516c3.2734 3.2734 8.6016 3.2773 11.875 0.003906 3.2734-3.2734 3.2734-8.6016-0.003906-11.875l-30.516-30.516c-3.2734-3.2773-8.6016-3.2812-11.875-0.003906z"/>
  <path d="m521.21 263.26c-1.4805-1.4805-2.2812-3.5156-2.1953-5.6094l1.4414-36.34c0.19922-5.1055-2.6172-9.8828-7.1875-12.168l-22.066-11.043c-5.0234-2.5234-11.07-1.543-15.043 2.4336l-35.438 35.438c-0.003906 0.003906-0.007812 0.011719-0.011719 0.015625-0.003906 0.003906-0.011719 0.007813-0.015625 0.011719l-8.1953 8.1953c-4.9492 4.9531-4.9492 13.008 0.003906 17.957 4.9492 4.9492 13.008 4.9531 17.957 0.003906l30.719-30.715c2.6836-2.6836 6.9414-2.9492 9.9336-0.61328 2.9961 2.332 3.7734 6.5273 1.832 9.7812-0.027344 0.046875-5.3281 9.4102-2.2812 20.176 2.4297 8.625 9.543 16.188 21.141 22.477 3.6445 1.9844 4.9961 6.543 3.0195 10.191-1.9844 3.6445-6.543 4.9961-10.191 3.0195-15.418-8.3711-25.012-19.105-28.516-31.898-0.52734-1.9414-0.89453-3.8438-1.125-5.6914l-13.898 13.898c-5.1953 5.1953-11.961 7.8281-18.785 8.0273 0.25391 6.3125-1.9492 12.707-6.7578 17.516-4.3555 4.3555-10.02 6.5703-15.738 6.7734-0.20312 5.7188-2.4141 11.379-6.7695 15.73-2.0977 2.0977-4.5195 3.6562-7.082 4.7891l31.891 31.891 36.465 3.7852c1.7148 0.17969 3.3203 0.94141 4.5391 2.1602l27.789 27.789 71.277-71.277z"/>
  <path d="m294.05 325.62c-2.5625-1.1328-4.9844-2.6914-7.082-4.7891-4.3555-4.3555-6.5664-10.016-6.7695-15.73-5.7188-0.20312-11.379-2.418-15.738-6.7734-4.8086-4.8086-7.0156-11.199-6.7578-17.516-6.8242-0.20312-13.59-2.832-18.785-8.0273l-13.898-13.898c-0.23047 1.8477-0.59375 3.75-1.125 5.6914-3.5039 12.797-13.098 23.527-28.516 31.898-3.6484 1.9766-8.2109 0.62109-10.191-3.0195-1.9766-3.6484-0.625-8.207 3.0195-10.191 11.594-6.293 18.711-13.852 21.141-22.477 3.043-10.766-2.2578-20.129-2.2812-20.176-1.9453-3.2578-1.1641-7.4531 1.832-9.7812 2.9883-2.3359 7.25-2.0703 9.9336 0.61328l30.719 30.715c4.9492 4.9492 13.008 4.9492 17.957-0.003906 4.9531-4.9492 4.9531-13.008 0.003906-17.957l-8.1953-8.1953c-0.003906-0.003906-0.011719-0.007812-0.015625-0.011719-0.003906-0.003906-0.007813-0.011719-0.011719-0.015625l-35.438-35.438c-3.9766-3.9766-10.02-4.957-15.043-2.4336l-22.066 11.043c-4.5703 2.2852-7.3867 7.0664-7.1875 12.168l1.4414 36.34c0.085937 2.0938-0.71484 4.1289-2.1953 5.6094l-56.707 56.707 71.277 71.277 27.789-27.789c1.2188-1.2188 2.8242-1.9844 4.5391-2.1602l36.465-3.7852z"/>
  <path d="m283.26 201.35c3.1914-3.2812 3.1836-8.543-0.0625-11.789-3.2734-3.2734-8.6016-3.2734-11.875 0.003906l-18.594 18.594 11.863 11.863z"/>
  <path d="m310.39 219.19c3.2656-3.2656 3.2695-8.582 0-11.852-3.2695-3.2695-8.5898-3.2734-11.859-0.003906l-4.5664 4.5664c-0.050781 0.054687-0.085938 0.11719-0.13672 0.16797l-18.594 18.594 2.8945 2.8945c3.2383 3.2383 5.3867 7.1172 6.6836 11.207z"/>
  <path d="m309.47 310.2 30.516-30.516c3.2734-3.2734 3.2773-8.6016 0.003906-11.875-3.2734-3.2734-8.6016-3.2734-11.875 0.003906l-30.516 30.516c-3.2734 3.2734-3.2773 8.6016-0.003906 11.875s8.6016 3.2695 11.875-0.003906z"/>
  <path d="m275.09 287.7c3.2734 3.2734 8.6055 3.2773 11.883 0.003907l38.301-38.301c3.2734-3.2734 3.2695-8.6055-0.003906-11.879-3.2734-3.2734-8.5977-3.2734-11.875 0l-38.301 38.301c-3.2773 3.2734-3.2773 8.5977-0.003906 11.875z"/>
  <path d="m258.18 159c4.1602 2.3984 9.5352 0.95312 11.938-3.2383l13.988-24.395 25.789 26.18c1.8047 1.8242 4.2461 2.7773 6.8633 2.5898 2.5469-0.18359 4.8945-1.4727 6.418-3.5352l26.828-36.348 26.832 36.352c1.5195 2.0586 3.8711 3.3516 6.418 3.5352 2.6914 0.1875 5.0586-0.76562 6.8633-2.5898l25.789-26.18 13.988 24.395c1.6133 2.8203 4.5625 4.3945 7.5977 4.3945 1.4766 0 2.9727-0.37109 4.3398-1.1562 4.1953-2.4062 5.6484-7.75 3.2383-11.945l-19.723-34.398c-1.3594-2.3711-3.75-3.9727-6.4688-4.3242-2.707-0.33594-5.4336 0.58594-7.3555 2.5391l-26.688 27.098-27.789-37.645c-3.2969-4.4688-10.785-4.4688-14.082 0l-27.789 37.645-26.688-27.098c-1.9297-1.9531-4.6562-2.8711-7.3555-2.5391-2.7188 0.35156-5.1094 1.9531-6.4688 4.3242l-19.723 34.398c-2.4102 4.1914-0.95703 9.5352 3.2383 11.941z"/>
  <path d="m441.82 400.79c-4.1797-2.4062-9.5352-0.95703-11.938 3.2383l-13.988 24.395-25.789-26.18c-1.8047-1.8203-4.1719-2.7227-6.8633-2.5898-2.5469 0.18359-4.8945 1.4727-6.418 3.5352l-26.828 36.348-26.832-36.352c-1.5195-2.0586-3.8711-3.3516-6.418-3.5352-2.6133-0.13281-5.0586 0.76953-6.8633 2.5898l-25.785 26.184-13.988-24.395c-2.4023-4.1914-7.7656-5.6406-11.938-3.2383-4.1953 2.4062-5.6484 7.75-3.2383 11.945l19.723 34.398c1.3594 2.3711 3.75 3.9727 6.4688 4.3242 2.6914 0.32422 5.4258-0.58984 7.3555-2.5391l26.688-27.098 27.789 37.645c1.6484 2.2344 4.2656 3.5547 7.0391 3.5547 2.7773 0 5.3906-1.3203 7.0391-3.5547l27.789-37.645 26.688 27.098c1.9297 1.9531 4.6562 2.8672 7.3555 2.5391 2.7188-0.35156 5.1094-1.9531 6.4688-4.3242l19.723-34.398c2.4102-4.1953 0.95703-9.5391-3.2383-11.945z"/>
  <use x="70" y="691.25" xlink:href="#l"/>
  <use x="102.109375" y="691.25" xlink:href="#d"/>
  <use x="123.683594" y="691.25" xlink:href="#b"/>
  <use x="153.355469" y="691.25" xlink:href="#c"/>
  <use x="182.878906" y="691.25" xlink:href="#i"/>
  <use x="203.792969" y="691.25" xlink:href="#b"/>
  <use x="233.464844" y="691.25" xlink:href="#a"/>
  <use x="280.011719" y="691.25" xlink:href="#h"/>
  <use x="311.328125" y="691.25" xlink:href="#g"/>
  <use x="355.078125" y="691.25" xlink:href="#f"/>
  <use x="388.9375" y="691.25" xlink:href="#e"/>
  <use x="420.085938" y="691.25" xlink:href="#a"/>
  <use x="451.402344" y="691.25" xlink:href="#d"/>
  <use x="472.976562" y="691.25" xlink:href="#b"/>
  <use x="517.882812" y="691.25" xlink:href="#k"/>
  <use x="551.230469" y="691.25" xlink:href="#j"/>
  <use x="582.375" y="691.25" xlink:href="#c"/>
  <use x="611.898437" y="691.25" xlink:href="#e"/>
  <use x="643.042969" y="691.25" xlink:href="#a"/>
 </g>
</svg>
